{"title":"Luther S04E02 x264 RB58.mp4","uid":13075140,"size":673323674,"categoryP":"video","categoryS":"tv_shows","magnet":"?xt=urn:btih:2b1e66e3553e295d5fdc44bf5ae80b57a61b9464&amp;dn=Luther+S04E02+x264+RB58.mp4&amp;tr=udp%3A%2F%2Ftracker.leechers-paradise.org%3A6969&amp;tr=udp%3A%2F%2Fzer0day.ch%3A1337&amp;tr=udp%3A%2F%2Fopen.demonii.com%3A1337&amp;tr=udp%3A%2F%2Ftracker.coppersurfer.tk%3A6969&amp;tr=udp%3A%2F%2Fexodus.desync.com%3A6969","seeders":1,"leechers":0,"uploader":"RedBaron58","files":1,"time":1450834284,"description":"Luther S04E02 x264 mp4\r\n \nhttp://www.imdb.com/title/tt1474684/\r\n\r\nTrailer:\r\n\r\n\r\nPlease be patient My intial upload speed is limited.\r\nThank you for your kind comments and feedback on my other torrents, your feedback is welcome.\r\n\r\n\r\nAbout the Episode:\r\nWith Luther dogged by ghosts from his past, a cold case might be the key to unlocking a mystery \r\nthat's tormenting him. \r\nMeanwhile, with the cannibalistic serial killer still at large, Benny's hacking skills have \r\nrevealed a list of hundreds of potential victims. Realising it's all part of a macabre end game, \r\nthe detective is forced to put himself and new colleague Emma into the heart of danger to try \r\nand stop the killer.\r\n\r\n\r\nI hope you enjoy.\r\n\r\n\r\nTechnical:\r\n\r\nGeneral\r\nComplete name                            : G:Luther S04E02 x264 RB58.mp4\r\nFormat                                   : MPEG-4\r\nFormat profile                           : Base Media\r\nCodec ID                                 : isom\r\nFile size                                : 642 MiB\r\nDuration                                 : 58mn 52s\r\nOverall bit rate                         : 1 525 Kbps\r\nWriting application                      : Lavf54.63.104\r\n\r\nVideo\r\nID                                       : 1\r\nFormat                                   : AVC\r\nFormat/Info                              : Advanced Video Codec\r\nFormat profile                           :   \r\nFormat settings, CABAC                   : Yes\r\nFormat settings, ReFrames                : 4 frames\r\nCodec ID                                 : avc1\r\nCodec ID/Info                            : Advanced Video Coding\r\nDuration                                 : 58mn 52s\r\nBit rate                                 : 1 400 Kbps\r\nWidth                                    : 832 pixels\r\nHeight                                   : 468 pixels\r\nDisplay aspect ratio                     : 16:9\r\nFrame rate mode                          : Constant\r\nFrame rate                               : 50.000 fps\r\nColor space                              : YUV\r\nChroma subsampling                       : 4:2:0\r\nBit depth                                : 8 bits\r\nScan type                                : Progressive\r\nBits/(Pixel*Frame)                       : 0.072\r\nStream size                              : 590 MiB (92%)\r\nWriting library                          : x264 core 123 r2189 35cf912\r\nEncoding settings                        : cabac=1 / ref=3 / deblock=1:0:0\r\n\r\nAudio\r\nID                                       : 2\r\nFormat                                   : AAC\r\nFormat/Info                              : Advanced Audio Codec\r\nFormat profile                           : LC\r\nCodec ID                                 : 40\r\nDuration                                 : 58mn 52s\r\nBit rate mode                            : Constant\r\nBit rate                                 : 112 Kbps\r\nChannel(s)                               : 2 channels\r\nChannel positions                        : Front: L R\r\nSampling rate                            : 48.0 KHz\r\nCompression mode                         : Lossy\r\nStream size                              : 47.2 MiB (7%)","torrent":{"xt":"urn:btih:2b1e66e3553e295d5fdc44bf5ae80b57a61b9464","amp;dn":"Luther+S04E02+x264+RB58.mp4","amp;tr":["udp%3A%2F%2Ftracker.leechers-paradise.org%3A6969","udp%3A%2F%2Fzer0day.ch%3A1337","udp%3A%2F%2Fopen.demonii.com%3A1337","udp%3A%2F%2Ftracker.coppersurfer.tk%3A6969","udp%3A%2F%2Fexodus.desync.com%3A6969"],"infoHash":"2b1e66e3553e295d5fdc44bf5ae80b57a61b9464","infoHashBuffer":{"type":"Buffer","data":[43,30,102,227,85,62,41,93,95,220,68,191,90,232,11,87,166,27,148,100]},"announce":[],"urlList":[]}}